<svg xmlns="http://www.w3.org/2000/svg"  viewBox="0 0 48 48" width="48px" height="48px" fill-rule="evenodd" clip-rule="evenodd" baseProfile="basic"><path fill="#4b7cb2" fill-rule="evenodd" d="M25.525,36.873	l11.749-7.649c1.011-0.485,3.772-7.02,4.751-7.751c2.128-1.591,2.425,5.383,1.549,6.8c-0.863,1.395-2.435,7.095-3.149,9.1	c-0.243,0.679-1.127,1.76-1.2,2c-0.075,0.247,0.259,0.484,0.349,0.651c1.037,1.896,1.895,4.091,0.7,6.1	c-0.293,0.492-1.459,0.772-2.149,0.849L25.525,36.873z" clip-rule="evenodd"/><path fill="#4b7cb2" fill-rule="evenodd" d="M19.074,39.473l-7.4-8.7	c-1.055-1.976-2.98-4.681-3.9-6.9c-0.355-0.855-1.225-3.481-2.5-2.749c-4.177,2.399,2.352,14.136,3.451,16.7	c0.053,0.125,0.005,0.272,0.049,0.4c0.284,0.833-1.103,4.077-1.349,5.449c-0.155,0.859,1.469,2.993,2.5,2.9L19.074,39.473z" clip-rule="evenodd"/><path fill="#d6e5e5" fill-rule="evenodd" d="M35.279,31.654	l1.939-5.313l-0.376-7l-25.437-0.5l-0.563,5.876c0.063,0.125,1.188,4,1.751,5.937l0.381,2.619c-0.224,0.06-0.343,0.599-0.5,0.651	c-0.175,0.059-0.22,0.416-0.249,0.449c-0.028,0.031-0.231,0.452-0.251,0.551c-0.539,2.647-1.98,7.273-1.749,10.5	c0.025,0.359,0,0.783,0,1.149c4.901,0.351,10.179-0.149,15.1-0.149c3.241,0,8.607-0.268,11.5,0.3	c0.169,0.033,1.177,0.069,1.349,0.049c0.509-4.743-2.053-9.511-2.9-13.2L35.279,31.654z" clip-rule="evenodd"/><path fill="#1e4284" fill-rule="evenodd" d="M13.513,25.563	c0.648-3.183,4.68-4.843,5.159,1.076c0.228,2.811-4.976,2.435-5.219,0.281C13.399,26.45,13.426,25.993,13.513,25.563z" clip-rule="evenodd"/><path fill="#010101" fill-rule="evenodd" d="M14.155,28.615	c-0.601-0.34-1.116-0.885-1.2-1.637c-0.06-0.525-0.029-1.036,0.067-1.513c0.352-1.732,1.66-3.183,3.101-3.275	c0.763-0.048,1.491,0.293,2.035,1.044c0.531,0.729,0.888,1.839,1.011,3.365c0.072,0.884-0.295,1.556-0.893,1.981	c-0.572,0.405-1.323,0.568-2.043,0.561C15.51,29.135,14.758,28.958,14.155,28.615z M17.697,27.765	c0.319-0.227,0.517-0.563,0.476-1.084c-0.116-1.432-0.443-2.336-0.824-2.86c-0.365-0.503-0.777-0.657-1.163-0.633	c-0.849,0.055-1.891,1.033-2.184,2.476c-0.077,0.381-0.1,0.785-0.053,1.201c0.08,0.715,1.132,1.267,2.293,1.277	C16.826,28.147,17.349,28.011,17.697,27.765z" clip-rule="evenodd"/><path fill="#1e4284" fill-rule="evenodd" d="M29.122,25.646	c0.028-0.444,0.128-0.936,0.316-1.476c0.74-2.089,2.711-1.983,4.452-1.063c0.383,0.203,0.592,0.983,0.688,1.437	C35.686,29.773,28.838,30.078,29.122,25.646z" clip-rule="evenodd"/><path fill="#010101" fill-rule="evenodd" d="M28.622,25.615	c0.032-0.496,0.143-1.032,0.344-1.611c0.428-1.208,1.249-1.84,2.248-1.988c0.951-0.141,1.991,0.164,2.933,0.664	c0.356,0.207,0.549,0.596,0.663,0.879c0.125,0.313,0.207,0.648,0.256,0.883c0.613,2.888-1.008,4.563-2.851,4.773	C30.402,29.422,28.458,28.17,28.622,25.615z M32.102,28.222c1.229-0.141,2.481-1.236,1.987-3.573	c-0.045-0.213-0.113-0.483-0.207-0.717c-0.107-0.267-0.199-0.365-0.229-0.383c-0.82-0.433-1.636-0.641-2.291-0.543	c-0.608,0.089-1.14,0.449-1.453,1.331c-0.175,0.501-0.264,0.949-0.288,1.341C29.501,27.549,30.83,28.367,32.102,28.222z" clip-rule="evenodd"/><path fill="#73a1b2" fill-rule="evenodd" d="M22.659,13.978	l-5.36,2.28l-7.36-2c-1.231,2.177-0.595,10.593,0.4,12.88c0.633,1.459,1.552,4.421,2.32,5.68c0.012,0.136,0.296,0.433,0.32,0.6	c0.079-0.4,0.536-1.352,0.88-1.52c0.019-0.232-0.551-1.593-0.72-1.84c-0.193-0.281-1.387-6.293-1.2-6.92	c0.684-2.295,2.831-4.164,5.56-2.44c0.653,0.413,4.037,1.433,4.16,1.64L22.659,13.978z" clip-rule="evenodd"/><path fill="#73a1b2" fill-rule="evenodd" d="M26.179,22.258	c1.34-0.315,5.441-2.321,6.88-1.88c3.051,0.936,3.988,5.347,2.44,8.76c-0.507,1.116-0.849,1.709-1.36,2.64	c0.283,0.273,0.953,1.644,1.12,2c0-0.243,0.461-1.049,0.56-1.32c0.643-1.773,1.876-4.089,2.4-6.04	c0.595-2.215,0.808-8.345,0.2-10.64c-0.249-0.941-0.537-1.673-0.72-2.4l-4.32,3l-8.2-2.48L26.179,22.258z" clip-rule="evenodd"/><path fill="#d6e5e5" fill-rule="evenodd" d="M15.059,8.938	c-0.724,0.779-1.985,0.785-2.08,2.04c-0.167,2.233,1.968,3.613,4.12,3.52c2.073-0.091,3.732-3.315,3.8-5.24	c0.015-0.411-0.657-2.155-0.84-2.28c0.36-0.279,1.392-2.225,1.92-2.84c0.403-0.469,1.657-2.575,2.04-2.72	c1.025,3.495,2.409,2.992,3.52,5c0.341,0.617-0.129,1.66-0.4,2.44c-1.009,2.915,2.556,6.244,5.32,5.96	c3.107-0.319,3.019-3.98,0.84-5.72c2.203,0.632,4.289,2.612,4.44,5.32c0.167,2.996-5.396,3.821-8.12,2.92	c-0.473-0.157-2.512-1.096-2.549-1.1c0.179,0.408,1.989,2.611,1.789,2.94c-0.06,0.097-0.66,0.691-0.8,0.76	c-0.015,0.007-3.419,4.14-3.64,4.44c-0.061,0.083-0.351,0.588-0.4,0.6c-0.148,0.035-0.391-0.219-0.44-0.28	c-0.697-0.867-3.893-4.969-4.24-5.72c-0.211-0.455,1.64-2.88,1.88-3c-0.483,0.42-1.776,1.161-2.52,1.6	c-1.873,1.105-6.939-0.123-8.04-1.68C8.211,12.435,12.122,9.578,15.059,8.938z" clip-rule="evenodd"/><path fill="#febf10" fill-rule="evenodd" d="M20.234,27.889	c-0.02-0.089,0.363-0.913,0.407-1.063c0.228-0.78,1.541-2.436,2.281-2.531h1.968c0.644,0.376,2.392,1.941,2.815,3.065l-0.252-0.159	c-0.588-0.037-1.14-0.792-2.093-0.469c-0.628,0.212-0.728,0.591-1.219,0.812c-0.001,0.001-0.211,0.001-0.219,0	c-0.765-0.18-0.791-0.741-1.751-0.749c-1.321-0.011-1.001,0.379-1.625,0.749l-0.253,0.448	C20.257,27.931,20.235,27.895,20.234,27.889z" clip-rule="evenodd"/><path fill="#ef4823" fill-rule="evenodd" d="M22.013,30.611	c-0.129-0.125-1.424-2.135-1.72-2.619l0.253-0.448c0.624-0.371,0.304-0.76,1.625-0.749c0.96,0.008,0.985,0.569,1.751,0.749	c0.008,0.001,0.217,0.001,0.219,0c0.491-0.221,0.591-0.6,1.219-0.812c0.953-0.323,1.505,0.432,2.093,0.469l0.252,0.159	c0.068,0.18,0.101,0.348,0.092,0.497c-0.043,0.631-2.777,4.109-3.688,3.937C22.946,31.575,22.581,31.165,22.013,30.611z" clip-rule="evenodd"/><path fill="#010101" fill-rule="evenodd" d="M23.633,25.386	c-0.204-0.108-0.376-0.293-0.44-0.369c-0.659-0.819-3.928-5.005-4.308-5.828c-0.069-0.151-0.068-0.299-0.057-0.397	c0.023-0.212,0.139-0.497,0.305-0.811l0.075-0.12l-0.255,0.149c-2.109,1.244-7.452-0.055-8.703-1.823	c-1.377-1.948-0.953-3.779,0.208-5.151c1.124-1.328,2.943-2.248,4.495-2.587c0.476-0.104,0.804,0.472,0.472,0.829	c-0.423,0.455-1.064,0.733-1.381,0.927c-0.349,0.215-0.536,0.409-0.567,0.811c-0.135,1.807,1.603,3.069,3.6,2.983	c1.659-0.073,3.257-2.929,3.323-4.757c-0.007-0.253-0.408-1.355-0.621-1.783l-0.083-0.137c-0.199-0.213-0.176-0.545,0.055-0.736	c0.296-0.261,1.26-2.087,1.849-2.773c0.293-0.341,1.524-2.377,2.064-2.764l0.044-0.028l0.064-0.037	c0.28-0.159,0.636-0.015,0.727,0.295c0.489,1.665,1.044,2.332,1.587,2.829c0.555,0.509,1.284,0.971,1.892,2.069	c0.269,0.488,0.189,1.071,0.076,1.523c-0.116,0.464-0.319,0.969-0.441,1.323c-0.861,2.485,2.325,5.553,4.796,5.299	c2.657-0.272,2.387-3.388,0.579-4.831c-0.424-0.34-0.072-1.021,0.451-0.872c2.361,0.677,4.636,2.808,4.801,5.773	c0.2,3.604-6.033,4.329-8.777,3.421c-0.113-0.037-0.325-0.123-0.579-0.231l-0.401-0.175l0.493,0.735	c0.184,0.299,0.335,0.585,0.38,0.793c0.019,0.087,0.056,0.3-0.104,0.556c-0.108,0.137-0.424,0.459-0.671,0.675l-0.181,0.144	l-0.033,0.041c-0.475,0.568-3.352,4.064-3.544,4.324c0.013-0.017-0.291,0.476-0.377,0.583l-0.072,0.075	c-0.072,0.069-0.152,0.112-0.239,0.133C23.906,25.518,23.717,25.431,23.633,25.386z M24.019,24.978l-0.019-0.075l-0.088-0.045	L24.019,24.978z M23.997,24.886l-0.031-0.128l-0.032,0.061L23.997,24.886z M24.011,24.089c0.233-0.317,3.513-4.3,3.677-4.487	c0.035-0.037,0.072-0.068,0.121-0.097l0.137-0.113c0.059-0.052,0.128-0.117,0.195-0.183l0.183-0.18l-0.024-0.057	c-0.124-0.236-0.385-0.639-0.717-1.107c-0.375-0.528-0.844-1.152-0.968-1.415c-0.183-0.404,0.204-0.828,0.635-0.677	c0.284,0.112,2.069,0.94,2.527,1.092c2.768,0.916,7.593-0.06,7.463-2.419c-0.085-1.531-0.859-2.82-1.927-3.715l-0.332-0.241	l0.027,0.052c0.88,2.059,0.173,4.501-2.497,4.775c-3.037,0.312-7.009-3.256-5.844-6.621c0.319-0.919,0.627-1.688,0.435-2.035	c-0.503-0.909-1.02-1.2-1.692-1.816c-0.513-0.469-1.007-1.053-1.448-2.088l-0.147-0.377l-0.483,0.693	c-0.379,0.56-0.768,1.152-0.973,1.392c-0.287,0.333-0.997,1.571-1.52,2.329l-0.167,0.229l0.088,0.18	c0.287,0.628,0.629,1.616,0.639,2.056c-0.071,2.023-1.804,5.631-4.277,5.739c-2.307,0.1-4.839-1.397-4.64-4.057l0.075-0.38	l-0.512,0.339c-0.305,0.24-0.585,0.503-0.823,0.784c-0.917,1.083-1.224,2.412-0.153,3.927c0.948,1.341,5.735,2.507,7.377,1.537	c0.68-0.4,1.707-0.992,2.245-1.388l0.192-0.155l0.049-0.035c0.511-0.36,1.088,0.375,0.616,0.785l-0.063,0.051l-0.14,0.144	c-0.389,0.445-1.2,1.573-1.449,2.127l-0.059,0.175l0.045,0.081c0.563,0.933,3.041,4.139,3.921,5.247l0.084,0.105l0.12-0.191	L24.011,24.089z" clip-rule="evenodd"/><path fill="#010101" fill-rule="evenodd" d="M12.497,33.542	c-0.033-0.079-0.173-0.239-0.265-0.432c-0.012-0.024-0.027-0.057-0.041-0.104l-0.265-0.492c-0.723-1.472-1.499-3.916-2.044-5.176	c-0.539-1.237-0.947-3.993-1.076-6.656c-0.127-2.619-0.005-5.424,0.699-6.669c0.136-0.24,0.441-0.325,0.681-0.189	c0.24,0.136,0.325,0.441,0.189,0.681c-0.528,0.935-0.703,3.404-0.571,6.129c0.129,2.663,0.536,5.253,0.993,6.305	c0.577,1.328,1.335,3.713,2.007,5.095l0.123,0.229l0.241-0.385l0.139-0.163l-0.04-0.121c-0.153-0.431-0.444-1.109-0.54-1.252	c-0.035-0.052-0.056-0.103-0.067-0.127c-0.147-0.351-0.492-1.971-0.763-3.436c-0.143-0.775-0.275-1.56-0.364-2.205	c-0.081-0.591-0.145-1.173-0.097-1.472l0.024-0.107c0.755-2.532,3.243-4.655,6.307-2.719c0.24,0.152,1.087,0.463,2.019,0.792	c0.693,0.244,1.781,0.612,2.088,0.803c0.023,0.015,0.14,0.084,0.216,0.212c0.141,0.237,0.063,0.544-0.175,0.685	c-0.179,0.107-0.396,0.089-0.567-0.043l-0.077-0.043c-0.103-0.047-0.296-0.125-0.579-0.229c-0.353-0.131-0.789-0.284-1.24-0.443	c-0.82-0.289-1.851-0.656-2.22-0.891c-2.109-1.331-3.748-0.235-4.532,1.423l-0.277,0.725l-0.003,0.125	c0.004,0.191,0.036,0.547,0.104,1.044c0.087,0.624,0.216,1.393,0.357,2.16c0.261,1.424,0.535,2.669,0.657,3.1l0.041,0.128	l0.064,0.109c0.237,0.447,0.657,1.469,0.708,1.844c0.005,0.037,0.011,0.095,0.005,0.16c-0.007,0.088-0.037,0.171-0.085,0.241	l-0.184,0.161c-0.168,0.115-0.553,0.845-0.619,1.173c-0.093,0.48-0.717,0.525-0.925,0.157L12.497,33.542z M12.979,33.418	l-0.023-0.073l-0.111,0.048L12.979,33.418z M12.683,32.895l0.204-0.096l-0.228,0.019L12.683,32.895z M13.859,31.898l-0.025-0.048	l-0.223,0.029L13.859,31.898z" clip-rule="evenodd"/><path fill="#010101" fill-rule="evenodd" d="M34.806,33.99	c-0.235-0.5-0.82-1.657-1.017-1.853c-0.16-0.159-0.196-0.403-0.088-0.599c0.513-0.935,0.845-1.511,1.343-2.605	c1.488-3.281,0.519-7.263-2.131-8.076c-0.5-0.153-1.664,0.119-3.164,0.649c-1.349,0.479-2.739,1.071-3.456,1.24	c-0.268,0.063-0.537-0.104-0.601-0.373c-0.063-0.268,0.104-0.537,0.373-0.601c0.624-0.147,1.913-0.699,3.351-1.208	c1.283-0.453,2.861-0.948,3.789-0.663c3.471,1.064,4.368,5.875,2.749,9.444c-0.388,0.853-0.683,1.411-1.021,2.027l-0.203,0.368	l0.103,0.155c0.124,0.201,0.253,0.436,0.391,0.659c0.063-0.12,0.104-0.208,0.125-0.265c0.671-1.848,1.873-4.088,2.387-5.999	c0.576-2.141,0.781-8.187,0.2-10.381c-0.239-0.903-0.536-1.667-0.721-2.407c-0.068-0.268,0.095-0.54,0.363-0.607	c0.268-0.068,0.54,0.095,0.607,0.363c0.181,0.723,0.452,1.389,0.719,2.393c0.635,2.397,0.413,8.615-0.2,10.899	c-0.536,1.996-1.785,4.347-2.413,6.081c-0.057,0.157-0.205,0.445-0.311,0.663c-0.131,0.271-0.209,0.455-0.221,0.504	C35.759,34.31,35.031,34.473,34.806,33.99z M35.259,33.778l0.088-0.041l-0.083-0.016L35.259,33.778z" clip-rule="evenodd"/><path fill="#010101" fill-rule="evenodd" d="M7.843,45.797	c-0.512-0.623-1.033-1.535-0.912-2.212c0.131-0.727,0.559-1.939,0.888-2.985c0.171-0.54,0.319-1.047,0.408-1.465	c0.099-0.465,0.091-0.693,0.073-0.748c-0.024-0.068-0.035-0.132-0.041-0.184c-0.005-0.045-0.008-0.097-0.008-0.14v-0.071	L8.15,37.766c-0.645-1.413-2.429-4.845-3.601-8.188c-1.192-3.397-2.036-7.445,0.476-8.888c0.487-0.279,0.972-0.237,1.38,0.004	c0.371,0.217,0.663,0.585,0.887,0.944c0.451,0.719,0.783,1.656,0.944,2.044c0.9,2.172,2.809,4.851,3.879,6.856	c0.131,0.244,0.039,0.547-0.205,0.676c-0.244,0.131-0.547,0.039-0.676-0.205c-1.023-1.915-2.984-4.683-3.921-6.944	c-0.193-0.467-0.475-1.271-0.867-1.896c-0.196-0.313-0.384-0.517-0.547-0.613c-0.124-0.072-0.225-0.084-0.376,0.003	c-1.667,0.957-1.328,3.989-0.031,7.688c1.244,3.544,3.112,7.028,3.692,8.381c0.039,0.089,0.055,0.172,0.061,0.239	c0.015,0.135,0.004,0.188,0.008,0.225l0.052,0.268c0.027,0.308-0.032,0.663-0.1,0.983c-0.099,0.468-0.26,1.013-0.431,1.559	c-0.355,1.125-0.743,2.217-0.857,2.861c-0.033,0.179,0.176,0.761,0.7,1.401c0.521,0.637,1.033,0.933,1.263,0.912	c0.275-0.025,0.517,0.179,0.543,0.453c0.025,0.275-0.179,0.517-0.453,0.543C9.167,47.143,8.35,46.417,7.843,45.797z" clip-rule="evenodd"/><path fill="#010101" fill-rule="evenodd" d="M37.627,47.029	c-0.031-0.273,0.167-0.521,0.441-0.552c0.316-0.036,0.744-0.119,1.117-0.245c0.417-0.143,0.615-0.292,0.657-0.363	c0.911-1.531,0.479-3.221-0.339-4.891l-0.369-0.709l-0.051-0.061c-0.077-0.087-0.209-0.235-0.287-0.401	c-0.067-0.14-0.123-0.345-0.052-0.579l0.037-0.099c0.089-0.195,0.285-0.457,0.597-0.921c0.255-0.38,0.481-0.745,0.572-1.003	c0.355-0.992,0.917-2.892,1.515-4.763c0.575-1.804,1.204-3.661,1.681-4.432c0.147-0.239,0.291-0.821,0.353-1.659	c0.059-0.795,0.039-1.715-0.072-2.54c-0.113-0.845-0.312-1.512-0.553-1.861c-0.117-0.168-0.201-0.201-0.236-0.208	c-0.025-0.005-0.12-0.015-0.317,0.132c-0.125,0.093-0.416,0.491-0.867,1.279c-0.403,0.704-0.86,1.583-1.328,2.472	c-0.464,0.884-0.937,1.776-1.361,2.485c-0.379,0.636-0.809,1.301-1.219,1.533l-0.059,0.032c-0.249,0.119-0.548,0.013-0.668-0.235	c-0.119-0.249-0.013-0.548,0.247-0.676c0.103-0.083,0.348-0.344,0.84-1.167c0.408-0.683,0.868-1.551,1.335-2.439	c0.463-0.88,0.932-1.78,1.344-2.503c0.38-0.663,0.784-1.32,1.137-1.584c0.781-0.584,1.511-0.36,1.973,0.308	c0.384,0.555,0.605,1.423,0.723,2.299c0.12,0.896,0.143,1.887,0.077,2.747c-0.061,0.827-0.208,1.64-0.5,2.111	c-0.383,0.619-0.965,2.288-1.579,4.209c-0.584,1.831-1.164,3.783-1.524,4.796c-0.141,0.392-0.44,0.857-0.685,1.223	c-0.173,0.257-0.355,0.516-0.456,0.675l0.059,0.08c0.052,0.06,0.112,0.128,0.157,0.196l0.043,0.069	c1.033,1.889,2.04,4.324,0.691,6.595c-0.447,0.749-1.931,1.024-2.524,1.091C37.906,47.501,37.658,47.303,37.627,47.029z" clip-rule="evenodd"/><path fill="#010101" fill-rule="evenodd" d="M36.735,47.217	c-2.828-0.556-8.108-0.293-11.411-0.293c-4.847,0-10.221,0.5-15.136,0.149c-0.261-0.019-0.464-0.237-0.464-0.5	c0-0.413,0.024-0.776,0-1.113c-0.237-3.332,1.24-8.087,1.764-10.659l0.012-0.045c0.04-0.129,0.143-0.351,0.216-0.497l0.053-0.101	c0.02-0.073,0.071-0.239,0.141-0.36c0.041-0.072,0.12-0.188,0.259-0.276l0.028-0.043c0.057-0.112,0.159-0.313,0.273-0.445	c0.069-0.08,0.191-0.193,0.372-0.243c0.267-0.071,0.541,0.088,0.613,0.353c0.052,0.2-0.024,0.405-0.177,0.525l-0.057,0.029	l-0.088,0.16c-0.036,0.075-0.085,0.169-0.171,0.285c-0.02,0.028-0.057,0.077-0.112,0.127l-0.081,0.048l-0.017,0.043	c-0.008,0.028-0.019,0.068-0.039,0.133l-0.028,0.069l-0.048,0.091l-0.037,0.071c-0.052,0.104-0.125,0.267-0.141,0.316l-0.108,0.503	c-0.6,2.701-1.839,6.912-1.628,9.845c0.013,0.191,0.013,0.407,0.011,0.616l-0.003,0.095l1.373,0.069	c4.335,0.139,8.847-0.245,13.22-0.245c3.267,0,8.639-0.271,11.595,0.309c0.075,0.012,0.336,0.027,0.597,0.036l0.189,0.005	l0.028-0.419c0.127-4.328-2.149-8.691-2.948-12.171c-0.061-0.268,0.107-0.537,0.376-0.599c0.268-0.061,0.537,0.107,0.599,0.376	c0.825,3.593,3.433,8.487,2.909,13.365c-0.025,0.235-0.211,0.42-0.459,0.445c-0.244,0.021-1.217-0.015-1.468-0.055L36.735,47.217z" clip-rule="evenodd"/><path fill="#010101" fill-rule="evenodd" d="M24.015,32.287	c-1.317-0.249-1.773-0.753-2.391-1.357c-0.145-0.175-0.575-0.829-0.961-1.425c-0.389-0.6-0.791-1.233-0.876-1.389l-0.041-0.117	c-0.033-0.147,0.012-0.295,0.009-0.284c0.037-0.149,0.143-0.401,0.223-0.588c0.044-0.108,0.165-0.389,0.183-0.443	c0.144-0.491,0.584-1.164,1.048-1.705c0.429-0.499,1.056-1.103,1.649-1.177c0.273-0.036,0.524,0.159,0.559,0.432	c0.036,0.273-0.159,0.524-0.432,0.559c-0.047,0.007-0.179,0.057-0.392,0.224c-0.197,0.155-0.415,0.369-0.624,0.615	c-0.435,0.507-0.765,1.052-0.855,1.356c-0.037,0.115-0.137,0.344-0.215,0.528c-0.051,0.119-0.091,0.216-0.124,0.299l0.077,0.133	c0.156,0.249,0.397,0.627,0.651,1.016c0.42,0.648,0.801,1.221,0.873,1.308l0.179,0.176c0.375,0.363,0.665,0.612,1.299,0.781	l0.325,0.073l0.069-0.02c0.104-0.043,0.297-0.155,0.588-0.401c0.341-0.289,0.723-0.683,1.088-1.107	c0.364-0.423,0.701-0.863,0.957-1.237c0.208-0.305,0.329-0.525,0.384-0.647l0.029-0.075l-0.007-0.1	c-0.053-0.296-0.353-0.832-1.007-1.544c-0.624-0.681-1.331-1.26-1.644-1.441c-0.239-0.139-0.32-0.445-0.181-0.684	c0.139-0.239,0.445-0.32,0.684-0.181c0.435,0.253,1.219,0.911,1.879,1.629c0.604,0.66,1.329,1.597,1.276,2.4	c-0.004,0.049-0.012,0.095-0.021,0.135c-0.067,0.289-0.307,0.689-0.565,1.069c-0.279,0.409-0.641,0.88-1.027,1.328	c-0.385,0.447-0.804,0.883-1.199,1.217c-0.355,0.301-0.799,0.621-1.225,0.657C24.182,32.305,24.099,32.303,24.015,32.287z" clip-rule="evenodd"/><path fill="#010101" fill-rule="evenodd" d="M23.889,28.045	l-0.077-0.011c-0.256-0.061-0.452-0.153-0.616-0.256c-0.148-0.093-0.26-0.187-0.373-0.269c-0.095-0.071-0.169-0.116-0.257-0.149	c-0.087-0.033-0.209-0.061-0.399-0.064c-0.311-0.001-0.492,0.02-0.6,0.047c-0.051,0.012-0.081,0.025-0.1,0.035l-0.041,0.028	c-0.043,0.037-0.101,0.116-0.173,0.197c-0.104,0.116-0.24,0.248-0.451,0.373c-0.237,0.141-0.544,0.063-0.685-0.175	c-0.141-0.237-0.063-0.544,0.175-0.685c0.1-0.06,0.159-0.116,0.212-0.176c0.065-0.073,0.148-0.187,0.265-0.288	c0.147-0.128,0.324-0.223,0.56-0.28c0.224-0.056,0.497-0.079,0.848-0.075c0.291,0.001,0.532,0.047,0.744,0.127	c0.211,0.08,0.369,0.187,0.496,0.28c0.123,0.091,0.209,0.164,0.309,0.227c0.075,0.047,0.156,0.087,0.297,0.109	c0.052-0.028,0.084-0.051,0.116-0.076l0.104-0.088c0.039-0.036,0.075-0.069,0.121-0.111c0.188-0.169,0.428-0.368,0.835-0.505	c0.645-0.219,1.161-0.063,1.555,0.12c0.176,0.081,0.336,0.172,0.473,0.237c0.133,0.064,0.208,0.084,0.257,0.087	c0.276,0.017,0.485,0.256,0.468,0.531c-0.017,0.276-0.256,0.485-0.531,0.468c-0.42-0.027-0.765-0.265-1.088-0.415	c-0.267-0.124-0.503-0.185-0.813-0.08c-0.223,0.075-0.344,0.172-0.487,0.3c-0.085,0.077-0.169,0.157-0.273,0.239	c-0.099,0.08-0.213,0.159-0.4,0.249l-0.069,0.027l-0.059,0.015l-0.081,0.009h-0.252L23.889,28.045z" clip-rule="evenodd"/><path fill="#febf10" fill-rule="evenodd" d="M24.183,21.947	c-0.412-0.855-1.921-4.06-2.081-4.535c-0.099-0.292-0.437-0.937-0.68-1.399c0.227-0.555,0.585-1.373,0.656-1.781	c0.205-1.18,0.756-2.591,0.968-3.812c0.077-0.443,0.701-3.036,0.844-3.157c0.252,1.237,1.561,5.665,2.063,6.532	c0.116,0.201,0.812,2.244,0.812,2.249c-0.045,0.519-1.615,4.412-1.905,5.032c-0.128,0.272-0.531,0.935-0.563,1.063	C24.279,22.131,24.239,22.062,24.183,21.947z" clip-rule="evenodd"/><path fill="#010101" fill-rule="evenodd" d="M24.086,22.594	c-0.116-0.053-0.181-0.139-0.189-0.149l-0.055-0.076c-0.036-0.056-0.073-0.129-0.109-0.203c-0.208-0.431-0.689-1.448-1.139-2.417	c-0.373-0.804-0.867-1.88-0.967-2.176c-0.077-0.228-0.364-0.785-0.648-1.325c-0.069-0.131-0.077-0.285-0.021-0.421	c0.119-0.288,0.259-0.619,0.384-0.939c0.129-0.329,0.217-0.592,0.243-0.74c0.213-1.227,0.761-2.623,0.968-3.812	c0.04-0.229,0.203-0.931,0.373-1.607c0.085-0.343,0.176-0.685,0.257-0.969c0.075-0.259,0.155-0.524,0.227-0.669	c0.008-0.015,0.059-0.124,0.156-0.207c0.289-0.247,0.737-0.091,0.813,0.281c0.12,0.592,0.504,1.988,0.925,3.357	c0.468,1.52,0.88,2.677,1.096,3.053c0.101,0.2,0.333,0.859,0.472,1.249c0.179,0.512,0.348,1.008,0.368,1.072	c0.021,0.067,0.028,0.136,0.017,0.22c-0.028,0.224-0.171,0.652-0.313,1.056c-0.163,0.456-0.373,1.012-0.589,1.567	c-0.429,1.103-0.892,2.227-1.044,2.551c-0.069,0.148-0.201,0.381-0.311,0.575c-0.136,0.243-0.212,0.385-0.227,0.413	C24.705,22.565,24.371,22.725,24.086,22.594z M24.406,20.865c0.136-0.289,0.587-1.383,1.017-2.488	c0.215-0.551,0.421-1.096,0.579-1.539c0.129-0.367,0.197-0.585,0.232-0.708l0.013-0.049l-0.033-0.097	c-0.067-0.196-0.173-0.507-0.285-0.827c-0.089-0.255-0.181-0.513-0.26-0.724c-0.084-0.229-0.137-0.36-0.153-0.392	c-0.292-0.505-0.78-1.969-1.167-3.224c-0.159-0.513-0.313-1.037-0.452-1.525l-0.043-0.153l-0.083,0.336	c-0.117,0.484-0.209,0.893-0.233,1.033c-0.216,1.247-0.772,2.688-0.968,3.812c-0.045,0.26-0.172,0.611-0.296,0.932	c-0.097,0.248-0.208,0.509-0.303,0.739l0.079,0.148c0.203,0.391,0.436,0.855,0.525,1.116c0.029,0.088,0.143,0.355,0.317,0.744	c0.169,0.377,0.384,0.847,0.608,1.329c0.28,0.605,0.572,1.227,0.805,1.719l0.052-0.085L24.406,20.865z M23.981,7.371L23.89,7.263	l-0.031,0.048L23.981,7.371z" clip-rule="evenodd"/><path fill="#d6e5e5" fill-rule="evenodd" d="M17.466,23.421	c-0.759-0.656-1.705-0.819-1.917,0.515c-0.177,1.091,0.22,3.308,2.352,2.192C18.914,25.595,18.346,24.181,17.466,23.421z" clip-rule="evenodd"/><path fill="#010101" fill-rule="evenodd" d="M16.509,26.899	c-0.499-0.101-0.848-0.412-1.075-0.775c-0.431-0.691-0.48-1.652-0.38-2.268c0.061-0.385,0.184-0.717,0.387-0.969	c0.212-0.263,0.492-0.413,0.8-0.451c0.569-0.071,1.135,0.245,1.552,0.607c0.503,0.435,0.932,1.064,1.085,1.699	c0.163,0.667,0.017,1.428-0.745,1.829C17.539,26.881,16.994,26.998,16.509,26.899z M17.667,25.685	c0.147-0.076,0.212-0.168,0.243-0.26c0.036-0.104,0.044-0.252-0.003-0.447c-0.097-0.396-0.392-0.853-0.769-1.179	c-0.343-0.296-0.628-0.388-0.776-0.371c-0.049,0.007-0.093,0.025-0.143,0.085c-0.057,0.072-0.133,0.22-0.177,0.501	c-0.077,0.476-0.017,1.167,0.24,1.58c0.117,0.187,0.256,0.289,0.425,0.324C16.89,25.957,17.195,25.933,17.667,25.685z" clip-rule="evenodd"/><path fill="#d6e5e5" fill-rule="evenodd" d="M33.555,23.163	c-0.789-0.727-1.776-0.907-1.997,0.568c-0.183,1.209,0.229,3.665,2.451,2.429C35.063,25.573,34.471,24.003,33.555,23.163z" clip-rule="evenodd"/><path fill="#010101" fill-rule="evenodd" d="M32.557,26.962	c-0.521-0.113-0.879-0.456-1.107-0.845c-0.437-0.745-0.488-1.789-0.387-2.459c0.063-0.417,0.187-0.772,0.391-1.041	c0.213-0.281,0.5-0.448,0.824-0.489c0.599-0.079,1.187,0.273,1.615,0.668c0.521,0.479,0.959,1.167,1.115,1.851	c0.179,0.776-0.023,1.543-0.756,1.952C33.635,26.941,33.066,27.073,32.557,26.962z M33.765,25.725	c0.153-0.085,0.231-0.193,0.271-0.316c0.043-0.133,0.049-0.315-0.003-0.54c-0.104-0.457-0.421-0.973-0.816-1.336	c-0.363-0.333-0.66-0.433-0.809-0.415c-0.048,0.007-0.099,0.027-0.157,0.103c-0.068,0.091-0.151,0.265-0.199,0.585	c-0.081,0.54-0.019,1.328,0.261,1.805c0.129,0.22,0.28,0.335,0.456,0.373C32.955,26.025,33.27,25.999,33.765,25.725z" clip-rule="evenodd"/></svg>